<svg width="12" height="12" viewBox="0 0 12 12" fill="none" xmlns="http://www.w3.org/2000/svg">
<g clip-path="url(#clip0_3009_293)">
<path d="M6 12C9.31371 12 12 9.31371 12 6C12 2.68629 9.31371 0 6 0C2.68629 0 0 2.68629 0 6C0 9.31371 2.68629 12 6 12Z" fill="#FF4500"/>
<path d="M10.002 6C10.0032 6.0822 9.993 6.16425 9.9714 6.2436C9.9498 6.32295 9.9171 6.399 9.8742 6.4692C9.83145 6.5394 9.77895 6.6033 9.71835 6.65895C9.65775 6.7146 9.58965 6.7614 9.516 6.798C9.51765 6.8199 9.519 6.84195 9.51975 6.864C9.52155 6.90798 9.52155 6.95202 9.51975 6.996C9.519 7.01805 9.51765 7.0401 9.516 7.062C9.516 8.406 7.95 9.498 6.018 9.498C4.086 9.498 2.52 8.406 2.52 7.062C2.51835 7.0401 2.517 7.01805 2.51625 6.996C2.51444 6.95202 2.51444 6.90798 2.51625 6.864C2.517 6.84195 2.51835 6.8199 2.52 6.798C2.40461 6.74496 2.30213 6.66748 2.21964 6.57093C2.13715 6.47437 2.07662 6.36105 2.04225 6.2388C2.00793 6.11649 2.00062 5.98819 2.02083 5.86277C2.04103 5.73736 2.08826 5.61784 2.15925 5.5125C2.23017 5.40717 2.32317 5.31854 2.43177 5.25275C2.54038 5.18696 2.662 5.14558 2.7882 5.1315C2.91441 5.11735 3.04219 5.13082 3.16268 5.17096C3.28317 5.21111 3.39349 5.27698 3.486 5.364C3.65772 5.2476 3.83764 5.14378 4.02435 5.05335C4.2111 4.96305 4.40415 4.88625 4.602 4.82385C4.79985 4.76145 5.00205 4.7136 5.2068 4.68045C5.41155 4.6473 5.61855 4.62915 5.826 4.626L6.27 2.544C6.27495 2.51985 6.2847 2.49705 6.29865 2.47665C6.31245 2.4564 6.3303 2.439 6.35085 2.42565C6.37155 2.4123 6.39465 2.40315 6.41895 2.39865C6.4431 2.3943 6.468 2.39475 6.492 2.4L7.962 2.694C8.11035 2.43915 8.42175 2.32995 8.6967 2.43615C8.97165 2.54235 9.12885 2.8326 9.06735 3.1209C9.006 3.4092 8.7441 3.6102 8.4498 3.59505C8.15535 3.5799 7.9155 3.3531 7.884 3.06L6.6 2.79L6.21 4.662C6.4149 4.66635 6.61935 4.68555 6.82155 4.7193C7.22647 4.78679 7.61952 4.91239 7.98855 5.0922C8.17286 5.1819 8.35047 5.28476 8.52 5.4C8.64189 5.28297 8.79506 5.20373 8.961 5.17185C9.12694 5.13985 9.2986 5.15658 9.45525 5.22C9.61191 5.28339 9.74689 5.39076 9.8439 5.52915C9.94093 5.66755 9.99584 5.83108 10.002 6ZM4.0476 6.82965C4.0779 6.9024 4.122 6.96855 4.1778 7.0242C4.23345 7.08 4.2996 7.1241 4.37235 7.1544C4.44517 7.18451 4.5232 7.20001 4.602 7.2C4.8447 7.2 5.0634 7.05375 5.1564 6.82965C5.24925 6.6054 5.1978 6.3474 5.0262 6.1758C4.8546 6.0042 4.5966 5.95275 4.37235 6.0456C4.14825 6.1386 4.002 6.3573 4.002 6.6C4.002 6.67875 4.01745 6.75675 4.0476 6.82965ZM7.4841 8.26995C7.51485 8.23995 7.5324 8.199 7.533 8.1561C7.5336 8.11305 7.51695 8.07165 7.48695 8.0409C7.45695 8.01015 7.416 7.9926 7.3731 7.992C7.33005 7.9914 7.28865 8.00805 7.254 8.034C7.16378 8.09871 7.06824 8.15566 6.9684 8.20425C6.86856 8.25286 6.76479 8.29295 6.6582 8.3241C6.5517 8.35515 6.44265 8.3772 6.3324 8.38995C6.222 8.4027 6.11085 8.406 6 8.4C5.8893 8.40495 5.7783 8.40045 5.66835 8.38665C5.55837 8.37298 5.44977 8.3499 5.34375 8.31765C5.23755 8.28555 5.1345 8.24445 5.03535 8.19495C4.9362 8.14545 4.8414 8.08755 4.752 8.022C4.72095 7.9965 4.6815 7.98345 4.6413 7.9854C4.6011 7.98735 4.56315 8.0043 4.53465 8.03265C4.5063 8.06115 4.48935 8.0991 4.4874 8.1393C4.48545 8.1795 4.4985 8.21895 4.524 8.25C4.62945 8.3295 4.7415 8.3997 4.85895 8.46C4.9764 8.5203 5.09895 8.57025 5.22495 8.60955C5.35095 8.64885 5.4801 8.6772 5.61105 8.69445C5.742 8.71155 5.87415 8.7174 6.006 8.712C6.13785 8.7174 6.27 8.71155 6.40095 8.69445C6.66323 8.65995 6.91763 8.58065 7.15305 8.46C7.2705 8.3997 7.38255 8.3295 7.488 8.25L7.4841 8.26995ZM7.374 7.248C7.4553 7.2489 7.536 7.23315 7.61115 7.20195C7.6863 7.1706 7.75425 7.1244 7.81095 7.06605C7.86765 7.0077 7.91175 6.9384 7.94085 6.86235C7.96997 6.78639 7.98329 6.70528 7.98 6.624C7.98 6.3813 7.83375 6.1626 7.60965 6.0696C7.3854 5.97675 7.1274 6.0282 6.9558 6.1998C6.7842 6.3714 6.73275 6.6294 6.8256 6.85365C6.9186 7.07775 7.1373 7.224 7.38 7.224L7.374 7.248Z" fill="white"/>
</g>
<defs>
<clipPath id="clip0_3009_293">
<rect width="12" height="12" fill="white"/>
</clipPath>
</defs>
</svg>
