<svg width="12" height="12" viewBox="0 0 12 12" fill="none" xmlns="http://www.w3.org/2000/svg">
<path fill-rule="evenodd" clip-rule="evenodd" d="M11.12 0.399956C11.12 0.223225 10.9767 0.0799561 10.8 0.0799561C10.6233 0.0799561 10.48 0.223225 10.48 0.399956V0.87996H9.99998C9.82326 0.87996 9.67998 1.02322 9.67998 1.19996C9.67998 1.37669 9.82326 1.51996 9.99998 1.51996H10.48V1.99996C10.48 2.17669 10.6233 2.31996 10.8 2.31996C10.9767 2.31996 11.12 2.17669 11.12 1.99996V1.51996H11.6C11.7767 1.51996 11.92 1.37669 11.92 1.19996C11.92 1.02322 11.7767 0.87996 11.6 0.87996H11.12V0.399956ZM9.48286 2.51711C9.63902 2.67332 9.63902 2.92658 9.48286 3.0828L8.68286 3.8828C8.52662 4.03901 8.27334 4.03901 8.11718 3.8828C7.96094 3.72659 7.96094 3.47333 8.11718 3.31711L8.9171 2.51712C9.07334 2.3609 9.32662 2.3609 9.48286 2.51711ZM7.88283 4.11711C8.03902 4.27332 8.03902 4.52659 7.88283 4.6828L2.28282 10.2828C2.12661 10.439 1.87335 10.439 1.71714 10.2828C1.56092 10.1266 1.56092 9.87334 1.71714 9.7171L7.31714 4.11711C7.47335 3.9609 7.72663 3.9609 7.88283 4.11711ZM10.8 4.07996C10.9767 4.07996 11.12 4.22322 11.12 4.39996V4.87996H11.6C11.7767 4.87996 11.92 5.02322 11.92 5.19996C11.92 5.37669 11.7767 5.51996 11.6 5.51996H11.12V5.99996C11.12 6.17669 10.9767 6.31996 10.8 6.31996C10.6233 6.31996 10.48 6.17669 10.48 5.99996V5.51996H9.99998C9.82326 5.51996 9.67998 5.37669 9.67998 5.19996C9.67998 5.02322 9.82326 4.87996 9.99998 4.87996H10.48V4.39996C10.48 4.22322 10.6233 4.07996 10.8 4.07996ZM7.11999 0.399956C7.11999 0.223225 6.97672 0.0799561 6.79999 0.0799561C6.62326 0.0799561 6.47999 0.223225 6.47999 0.399956V0.87996H5.99999C5.82326 0.87996 5.67999 1.02322 5.67999 1.19996C5.67999 1.37669 5.82326 1.51996 5.99999 1.51996H6.47999V1.99996C6.47999 2.17669 6.62326 2.31996 6.79999 2.31996C6.97672 2.31996 7.11999 2.17669 7.11999 1.99996V1.51996H7.59999C7.77672 1.51996 7.91999 1.37669 7.91999 1.19996C7.91999 1.02322 7.77672 0.87996 7.59999 0.87996H7.11999V0.399956Z" fill="white"/>
</svg>
